# xmcd CD database file
#
# Track frame offsets:
#	150
#	4522
#	20388
#	48711
#	78607
#	104842
#	156500
#	193161
#	235444
#	259152
#	289605
#	306330
#	314819
#
# Disc length: 4304 seconds
#
# Revision: 0
# Processed by: cddbd v1.5.2PL0 Copyright (c) Steve Scherf et al.
# Submitted via: CDex 1.70beta2
#
DISCID=c110ce0d
DTITLE=Jimi Hendrix - live at winterland
DYEAR=1900
DGENRE=Blues
TTITLE0=Prologue
TTITLE1=Fire
TTITLE2=Manic Depression
TTITLE3=Sunshine of your love
TTITLE4=Spanish Castle Magic
TTITLE5=Red House
TTITLE6=Killing Floor
TTITLE7=Tax Free
TTITLE8=Foxy Lady
TTITLE9=Hey Joe
TTITLE10=Purple Haze
TTITLE11=Wild Thing
TTITLE12=Epilogue
EXTD=
EXTT0=
EXTT1=
EXTT2=
EXTT3=
EXTT4=
EXTT5=
EXTT6=
EXTT7=
EXTT8=
EXTT9=
EXTT10=
EXTT11=
EXTT12=
PLAYORDER=
